<svg width="48" height="48" viewBox="0 0 48 48" fill="none" xmlns="http://www.w3.org/2000/svg">
<path d="M36 4.5H12C11.2044 4.5 10.4413 4.81607 9.87868 5.37868C9.31607 5.94129 9 6.70435 9 7.5V40.5C9 41.2957 9.31607 42.0587 9.87868 42.6213C10.4413 43.1839 11.2044 43.5 12 43.5H36C36.7956 43.5 37.5587 43.1839 38.1213 42.6213C38.6839 42.0587 39 41.2957 39 40.5V7.5C39 6.70435 38.6839 5.94129 38.1213 5.37868C37.5587 4.81607 36.7956 4.5 36 4.5ZM36 40.5H12V7.5H36V40.5ZM21.75 14.25C21.75 13.805 21.882 13.37 22.1292 13C22.3764 12.63 22.7278 12.3416 23.139 12.1713C23.5501 12.001 24.0025 11.9564 24.439 12.0432C24.8754 12.13 25.2763 12.3443 25.591 12.659C25.9057 12.9737 26.12 13.3746 26.2068 13.811C26.2936 14.2475 26.249 14.6999 26.0787 15.111C25.9084 15.5222 25.62 15.8736 25.25 16.1208C24.88 16.368 24.445 16.5 24 16.5C23.4033 16.5 22.831 16.2629 22.409 15.841C21.9871 15.419 21.75 14.8467 21.75 14.25ZM24 36C25.4834 36 26.9334 35.5601 28.1668 34.736C29.4001 33.9119 30.3614 32.7406 30.9291 31.3701C31.4968 29.9997 31.6453 28.4917 31.3559 27.0368C31.0665 25.582 30.3522 24.2456 29.3033 23.1967C28.2544 22.1478 26.918 21.4335 25.4632 21.1441C24.0083 20.8547 22.5003 21.0032 21.1299 21.5709C19.7594 22.1386 18.5881 23.0999 17.764 24.3332C16.9399 25.5666 16.5 27.0166 16.5 28.5C16.5 29.4849 16.694 30.4602 17.0709 31.3701C17.4478 32.2801 18.0003 33.1069 18.6967 33.8033C20.1032 35.2098 22.0109 36 24 36ZM24 24C24.89 24 25.76 24.2639 26.5001 24.7584C27.2401 25.2529 27.8169 25.9557 28.1575 26.7779C28.4981 27.6002 28.5872 28.505 28.4135 29.3779C28.2399 30.2508 27.8113 31.0526 27.182 31.682C26.5526 32.3113 25.7508 32.7399 24.8779 32.9135C24.005 33.0872 23.1002 32.9981 22.2779 32.6575C21.4557 32.3169 20.7529 31.7401 20.2584 31.0001C19.7639 30.26 19.5 29.39 19.5 28.5C19.5 27.3065 19.9741 26.1619 20.818 25.318C21.6619 24.4741 22.8065 24 24 24Z" fill="white" fill-opacity="0.7"/>
</svg>
