<svg width="40" height="40" viewBox="0 0 40 40" fill="none" xmlns="http://www.w3.org/2000/svg">
<path d="M35.6437 22.6781L30 19.2922V16.25C30.002 16.0287 29.9452 15.8108 29.8354 15.6186C29.7255 15.4265 29.5667 15.2669 29.375 15.1562L21.25 10.525V7.5H23.75C24.0815 7.5 24.3995 7.3683 24.6339 7.13388C24.8683 6.89946 25 6.58152 25 6.25C25 5.91848 24.8683 5.60054 24.6339 5.36612C24.3995 5.1317 24.0815 5 23.75 5H21.25V2.5C21.25 2.16848 21.1183 1.85054 20.8839 1.61612C20.6495 1.3817 20.3315 1.25 20 1.25C19.6685 1.25 19.3505 1.3817 19.1161 1.61612C18.8817 1.85054 18.75 2.16848 18.75 2.5V5H16.25C15.9185 5 15.6005 5.1317 15.3661 5.36612C15.1317 5.60054 15 5.91848 15 6.25C15 6.58152 15.1317 6.89946 15.3661 7.13388C15.6005 7.3683 15.9185 7.5 16.25 7.5H18.75V10.525L10.625 15.1641C10.4333 15.2747 10.2745 15.4343 10.1646 15.6264C10.0548 15.8186 9.99802 16.0365 10 16.2578V19.3L4.35625 22.6781C4.17127 22.7893 4.01821 22.9464 3.91197 23.1342C3.80573 23.3221 3.74993 23.5342 3.75 23.75V33.75C3.75 34.0815 3.8817 34.3995 4.11612 34.6339C4.35054 34.8683 4.66848 35 5 35H17.5C17.8315 35 18.1495 34.8683 18.3839 34.6339C18.6183 34.3995 18.75 34.0815 18.75 33.75V26.25C18.75 25.9185 18.8817 25.6005 19.1161 25.3661C19.3505 25.1317 19.6685 25 20 25C20.3315 25 20.6495 25.1317 20.8839 25.3661C21.1183 25.6005 21.25 25.9185 21.25 26.25V33.75C21.25 34.0815 21.3817 34.3995 21.6161 34.6339C21.8505 34.8683 22.1685 35 22.5 35H35C35.3315 35 35.6495 34.8683 35.8839 34.6339C36.1183 34.3995 36.25 34.0815 36.25 33.75V23.75C36.2501 23.5342 36.1943 23.3221 36.088 23.1342C35.9818 22.9464 35.8287 22.7893 35.6437 22.6781ZM6.25 24.4578L10 22.2078V32.5H6.25V24.4578ZM20 22.5C19.0054 22.5 18.0516 22.8951 17.3483 23.5983C16.6451 24.3016 16.25 25.2554 16.25 26.25V32.5H12.5V16.975L20 12.6891L27.5 16.975V32.5H23.75V26.25C23.75 25.2554 23.3549 24.3016 22.6517 23.5983C21.9484 22.8951 20.9946 22.5 20 22.5ZM33.75 32.5H30V22.2078L33.75 24.4578V32.5Z" fill="white" fill-opacity="0.7"/>
</svg>
