<svg width="56" height="56" viewBox="0 0 56 56" fill="none" xmlns="http://www.w3.org/2000/svg">
<path d="M12.25 21V35C12.25 35.4641 12.0656 35.9093 11.7374 36.2374C11.4092 36.5656 10.9641 36.75 10.5 36.75C10.0359 36.75 9.59075 36.5656 9.26256 36.2374C8.93437 35.9093 8.75 35.4641 8.75 35V21C8.75 20.5359 8.93437 20.0908 9.26256 19.7626C9.59075 19.4344 10.0359 19.25 10.5 19.25C10.9641 19.25 11.4092 19.4344 11.7374 19.7626C12.0656 20.0908 12.25 20.5359 12.25 21ZM19.25 5.25C18.7859 5.25 18.3408 5.43437 18.0126 5.76256C17.6844 6.09075 17.5 6.53587 17.5 7V49C17.5 49.4641 17.6844 49.9092 18.0126 50.2374C18.3408 50.5656 18.7859 50.75 19.25 50.75C19.7141 50.75 20.1592 50.5656 20.4874 50.2374C20.8156 49.9092 21 49.4641 21 49V7C21 6.53587 20.8156 6.09075 20.4874 5.76256C20.1592 5.43437 19.7141 5.25 19.25 5.25ZM28 12.25C27.5359 12.25 27.0908 12.4344 26.7626 12.7626C26.4344 13.0908 26.25 13.5359 26.25 14V42C26.25 42.4641 26.4344 42.9092 26.7626 43.2374C27.0908 43.5656 27.5359 43.75 28 43.75C28.4641 43.75 28.9093 43.5656 29.2374 43.2374C29.5656 42.9092 29.75 42.4641 29.75 42V14C29.75 13.5359 29.5656 13.0908 29.2374 12.7626C28.9093 12.4344 28.4641 12.25 28 12.25ZM36.75 19.25C36.2859 19.25 35.8407 19.4344 35.5126 19.7626C35.1844 20.0908 35 20.5359 35 21V35C35 35.4641 35.1844 35.9093 35.5126 36.2374C35.8407 36.5656 36.2859 36.75 36.75 36.75C37.2141 36.75 37.6593 36.5656 37.9874 36.2374C38.3156 35.9093 38.5 35.4641 38.5 35V21C38.5 20.5359 38.3156 20.0908 37.9874 19.7626C37.6593 19.4344 37.2141 19.25 36.75 19.25ZM45.5 15.75C45.0359 15.75 44.5908 15.9344 44.2626 16.2626C43.9344 16.5908 43.75 17.0359 43.75 17.5V38.5C43.75 38.9641 43.9344 39.4092 44.2626 39.7374C44.5908 40.0656 45.0359 40.25 45.5 40.25C45.9641 40.25 46.4092 40.0656 46.7374 39.7374C47.0656 39.4092 47.25 38.9641 47.25 38.5V17.5C47.25 17.0359 47.0656 16.5908 46.7374 16.2626C46.4092 15.9344 45.9641 15.75 45.5 15.75Z" fill="white"/>
</svg>
