<svg width="48" height="48" viewBox="0 0 48 48" fill="none" xmlns="http://www.w3.org/2000/svg">
<path d="M39.9225 4.81691C39.7428 4.6769 39.5336 4.57965 39.3108 4.53255C39.0879 4.48544 38.8572 4.48971 38.6363 4.54503L14.6363 10.545C14.3117 10.6261 14.0237 10.8134 13.8178 11.077C13.6119 11.3407 13.5001 11.6655 13.5 12V32.64C12.2487 31.804 10.7539 31.41 9.25303 31.5208C7.7522 31.6316 6.33143 32.2408 5.21646 33.2516C4.10149 34.2623 3.35628 35.6167 3.09921 37.0995C2.84215 38.5823 3.08798 40.1085 3.79766 41.4356C4.50733 42.7627 5.64013 43.8145 7.01609 44.4241C8.39205 45.0336 9.93224 45.1658 11.392 44.7998C12.8517 44.4337 14.1472 43.5903 15.0727 42.4036C15.9982 41.2169 16.5006 39.755 16.5 38.25V22.1719L37.5 16.9219V26.64C36.2487 25.804 34.7539 25.41 33.253 25.5208C31.7522 25.6316 30.3314 26.2408 29.2165 27.2516C28.1015 28.2623 27.3563 29.6167 27.0992 31.0995C26.8421 32.5823 27.088 34.1085 27.7977 35.4356C28.5073 36.7627 29.6401 37.8145 31.0161 38.4241C32.3921 39.0336 33.9322 39.1658 35.392 38.7998C36.8517 38.4337 38.1472 37.5903 39.0727 36.4036C39.9982 35.2169 40.5006 33.755 40.5 32.25V6.00003C40.5001 5.77189 40.4481 5.54675 40.348 5.34172C40.2479 5.1367 40.1024 4.95721 39.9225 4.81691ZM9.75001 42C9.00833 42 8.28331 41.7801 7.66662 41.368C7.04994 40.956 6.56929 40.3703 6.28546 39.6851C6.00163 38.9999 5.92737 38.2459 6.07206 37.5184C6.21676 36.791 6.57391 36.1228 7.09836 35.5984C7.62281 35.0739 8.29099 34.7168 9.01842 34.5721C9.74585 34.4274 10.4998 34.5017 11.1851 34.7855C11.8703 35.0693 12.456 35.55 12.868 36.1666C13.2801 36.7833 13.5 37.5084 13.5 38.25C13.5 39.2446 13.1049 40.1984 12.4017 40.9017C11.6984 41.6049 10.7446 42 9.75001 42ZM16.5 19.0782V13.1719L37.5 7.92191V13.8282L16.5 19.0782ZM33.75 36C33.0083 36 32.2833 35.7801 31.6666 35.368C31.0499 34.956 30.5693 34.3703 30.2855 33.6851C30.0016 32.9999 29.9274 32.2459 30.0721 31.5184C30.2168 30.791 30.5739 30.1228 31.0984 29.5984C31.6228 29.0739 32.291 28.7168 33.0184 28.5721C33.7458 28.4274 34.4998 28.5017 35.1851 28.7855C35.8703 29.0693 36.456 29.55 36.868 30.1666C37.2801 30.7833 37.5 31.5084 37.5 32.25C37.5 32.7425 37.403 33.2301 37.2146 33.6851C37.0261 34.1401 36.7499 34.5535 36.4017 34.9017C36.0534 35.2499 35.64 35.5261 35.1851 35.7146C34.7301 35.903 34.2425 36 33.75 36Z" fill="white" fill-opacity="0.7"/>
</svg>
