<svg width="40" height="40" viewBox="0 0 40 40" fill="none" xmlns="http://www.w3.org/2000/svg">
<path d="M32.8594 8.80302L20.3594 5.05302C20.1728 4.997 19.9756 4.98538 19.7837 5.0191C19.5918 5.05282 19.4104 5.13093 19.2541 5.24721C19.0977 5.36349 18.9707 5.51471 18.8832 5.68881C18.7957 5.8629 18.7501 6.05504 18.75 6.24989V23.1655C17.4699 22.0205 15.8355 21.3496 14.1201 21.2648C12.4047 21.1801 10.7122 21.6866 9.32539 22.6999C7.93861 23.7131 6.94161 25.1716 6.501 26.8316C6.0604 28.4917 6.20289 30.2526 6.90466 31.8202C7.60643 33.3878 8.82496 34.667 10.3566 35.4441C11.8883 36.2212 13.6402 36.449 15.3197 36.0896C16.9991 35.7301 18.5043 34.8052 19.5837 33.4692C20.6631 32.1333 21.2513 30.4674 21.25 28.7499V15.4296L32.1406 18.6968C32.3273 18.7528 32.5244 18.7644 32.7163 18.7307C32.9082 18.697 33.0896 18.6189 33.2459 18.5026C33.4023 18.3863 33.5293 18.2351 33.6168 18.061C33.7043 17.8869 33.7499 17.6947 33.75 17.4999V9.99989C33.7499 9.73116 33.6633 9.46961 33.5028 9.25402C33.3424 9.03843 33.1168 8.88028 32.8594 8.80302ZM13.75 33.7499C12.7611 33.7499 11.7944 33.4566 10.9722 32.9072C10.1499 32.3578 9.50904 31.5769 9.1306 30.6633C8.75217 29.7497 8.65315 28.7443 8.84608 27.7744C9.039 26.8045 9.51521 25.9136 10.2145 25.2144C10.9137 24.5151 11.8046 24.0389 12.7746 23.846C13.7445 23.653 14.7498 23.7521 15.6634 24.1305C16.5771 24.5089 17.3579 25.1498 17.9074 25.972C18.4568 26.7943 18.75 27.761 18.75 28.7499C18.75 30.076 18.2232 31.3477 17.2855 32.2854C16.3479 33.2231 15.0761 33.7499 13.75 33.7499ZM31.25 15.8202L21.25 12.8202V7.92958L31.25 10.9374V15.8202Z" fill="white" fill-opacity="0.7"/>
</svg>
