<svg width="40" height="40" viewBox="0 0 40 40" fill="none" xmlns="http://www.w3.org/2000/svg">
<path d="M33.4248 32.9093C33.5375 33.0303 33.6251 33.1726 33.6824 33.3277C33.7398 33.4829 33.7657 33.6479 33.7588 33.8132C33.7519 33.9784 33.7123 34.1407 33.6422 34.2905C33.5721 34.4404 33.473 34.5748 33.3506 34.6861C33.2282 34.7973 33.0849 34.8832 32.9291 34.9386C32.7732 34.9941 32.6079 35.0181 32.4428 35.0092C32.2776 35.0003 32.1158 34.9587 31.9668 34.8869C31.8178 34.815 31.6846 34.7143 31.5748 34.5905L26.1061 28.5827C25.5451 28.7559 24.9513 28.795 24.3725 28.6968C23.7936 28.5985 23.246 28.3658 22.7735 28.0172C22.3011 27.6687 21.9171 27.214 21.6524 26.69C21.3878 26.1659 21.2499 25.587 21.2498 24.9999C21.2481 24.4733 21.3116 23.9484 21.4389 23.4374L14.9998 16.353C14.9862 16.6845 14.8413 16.9971 14.5972 17.2218C14.3532 17.4466 14.0298 17.5651 13.6983 17.5515C13.3667 17.5378 13.0542 17.393 12.8295 17.1489C12.6047 16.9048 12.4862 16.5814 12.4998 16.2499C12.4989 15.4834 12.6159 14.7214 12.8467 13.9905L10.078 10.9374C9.2012 12.5706 8.74477 14.3963 8.74983 16.2499C8.74983 20.4218 10.0826 21.7062 11.4951 23.0687C12.8451 24.3749 14.3748 25.8452 14.3748 29.3749C14.3748 30.8667 14.9675 32.2975 16.0224 33.3524C17.0772 34.4073 18.508 34.9999 19.9998 34.9999C21.5998 34.9999 22.8826 34.3499 24.0358 32.9546C24.139 32.8244 24.2672 32.7162 24.4128 32.6362C24.5584 32.5561 24.7185 32.506 24.8838 32.4885C25.049 32.4711 25.216 32.4868 25.3751 32.5347C25.5342 32.5825 25.6822 32.6617 25.8104 32.7674C25.9385 32.8731 26.0443 33.0033 26.1216 33.1504C26.1988 33.2975 26.246 33.4585 26.2603 33.6241C26.2746 33.7896 26.2557 33.9563 26.2048 34.1145C26.1539 34.2726 26.072 34.4191 25.9639 34.5452C24.3451 36.5062 22.3436 37.4999 19.9998 37.4999C17.8457 37.4974 15.7805 36.6406 14.2573 35.1174C12.7341 33.5942 11.8773 31.529 11.8748 29.3749C11.8748 26.9077 10.9873 26.0515 9.7592 24.8687C8.1967 23.3593 6.24983 21.4843 6.24983 16.2499C6.24343 13.6883 6.95877 11.1768 8.31389 9.00303L6.57483 7.09053C6.46212 6.96946 6.37456 6.82722 6.31723 6.67206C6.2599 6.5169 6.23393 6.3519 6.24084 6.18663C6.24774 6.02136 6.28738 5.85911 6.35745 5.70927C6.42753 5.55943 6.52665 5.42499 6.64906 5.31375C6.77148 5.2025 6.91475 5.11665 7.07059 5.06118C7.22643 5.00572 7.39172 4.98173 7.5569 4.99062C7.72207 4.9995 7.88384 5.04108 8.03283 5.11295C8.18181 5.18482 8.31505 5.28554 8.42483 5.40928L33.4248 32.9093ZM14.2326 6.58896C15.9403 5.56937 17.8878 5.02073 19.8766 4.99894C21.8654 4.97715 23.8244 5.48299 25.554 6.46492C27.2836 7.44685 28.722 8.86977 29.7226 10.5887C30.7231 12.3076 31.2501 14.261 31.2498 16.2499C31.2498 16.5814 31.3815 16.8994 31.6159 17.1338C31.8504 17.3682 32.1683 17.4999 32.4998 17.4999C32.8313 17.4999 33.1493 17.3682 33.3837 17.1338C33.6181 16.8994 33.7498 16.5814 33.7498 16.2499C33.7502 13.8187 33.106 11.4309 31.8828 9.32988C30.6596 7.22882 28.9012 5.48965 26.7869 4.28961C24.6725 3.08958 22.2778 2.47159 19.8468 2.49865C17.4158 2.52572 15.0354 3.19685 12.9483 4.44365C12.6638 4.61397 12.4586 4.89033 12.3779 5.21192C12.2971 5.53352 12.3475 5.87401 12.5178 6.1585C12.6881 6.44298 12.9645 6.64816 13.2861 6.72889C13.6077 6.80962 13.9482 6.75928 14.2326 6.58896ZM25.0498 19.8702C25.1957 19.9455 25.355 19.9914 25.5186 20.0052C25.6822 20.0189 25.8469 20.0003 26.0034 19.9504C26.1598 19.9005 26.3048 19.8202 26.4302 19.7143C26.5556 19.6083 26.6589 19.4786 26.7342 19.3327C27.2384 18.3835 27.5014 17.3248 27.4998 16.2499C27.5002 15.0559 27.2155 13.879 26.6694 12.8171C26.1232 11.7553 25.3315 10.8392 24.3599 10.1451C23.3884 9.45092 22.2652 8.99876 21.0836 8.82621C19.9021 8.65367 18.6965 8.76571 17.567 9.15303C17.2533 9.26056 16.9952 9.48831 16.8494 9.78618C16.7036 10.084 16.6821 10.4276 16.7897 10.7413C16.8972 11.055 17.125 11.3131 17.4228 11.4589C17.7207 11.6047 18.0643 11.6262 18.378 11.5187C19.1309 11.2604 19.9347 11.1857 20.7224 11.3008C21.51 11.4158 22.2589 11.7172 22.9066 12.18C23.5543 12.6428 24.0821 13.2535 24.4462 13.9614C24.8103 14.6693 25.0001 15.4539 24.9998 16.2499C24.9996 16.9231 24.8321 17.5856 24.5123 18.178C24.437 18.3239 24.3911 18.4832 24.3774 18.6468C24.3636 18.8104 24.3822 18.9751 24.4321 19.1316C24.4821 19.288 24.5623 19.433 24.6683 19.5584C24.7743 19.6838 24.9039 19.7871 25.0498 19.8624V19.8702Z" fill="white" fill-opacity="0.7"/>
</svg>
